<svg version="1.1" id="Layer_1" xmlns="http://www.w3.org/2000/svg" xmlns:xlink="http://www.w3.org/1999/xlink" x="0px" y="0px"
	 width="100%" viewBox="0 0 500 500" enable-background="new 0 0 500 500" xml:space="preserve">
<path fill="#222433" opacity="1.000000" stroke="none" 
	d="
M245.000000,501.000000 
	C163.333359,501.000000 82.166702,501.000000 1.000029,501.000000 
	C1.000000,417.666718 1.000000,334.333405 1.000000,251.000122 
	C1.000000,167.666809 1.000000,84.333496 1.000000,1.000133 
	C167.666565,1.000089 334.333130,1.000089 500.999756,1.000044 
	C500.999847,167.666519 500.999847,334.333038 500.999939,500.999786 
	C415.833344,501.000000 330.666656,501.000000 245.000000,501.000000 
M53.110233,212.926392 
	C53.145607,237.281326 53.180981,261.636261 53.191353,286.473450 
	C53.354275,286.823975 53.622944,286.951233 54.926571,286.989441 
	C62.826557,286.989441 70.726540,286.989441 78.654434,286.989441 
	C78.654434,261.330017 78.654434,236.358566 78.654434,211.143799 
	C70.210121,211.143799 62.108971,211.143799 53.526421,211.162796 
	C53.187710,211.351898 53.084354,211.628845 53.110233,212.926392 
M159.958099,168.925171 
	C159.958099,192.841141 159.958099,216.757111 159.958099,240.604279 
	C221.498322,240.604279 282.225891,240.604279 343.533783,240.604279 
	C343.533783,215.952774 343.533783,191.691605 343.533783,167.328735 
	C350.368286,167.328735 356.616791,167.328735 363.014282,167.328735 
	C363.014282,223.314621 363.014282,279.003815 363.014282,334.570648 
	C356.304230,334.570648 350.070007,334.570648 343.217865,334.570648 
	C343.217865,309.949799 343.217865,285.716675 343.217865,261.330353 
	C266.539856,261.330353 190.492142,261.330353 114.418098,261.330353 
	C114.418098,294.692871 114.418098,327.722809 114.418098,360.706360 
	C138.416336,360.706360 161.994812,360.706360 185.168182,360.706360 
	C185.168182,344.180115 185.168182,328.020294 185.168182,311.708923 
	C176.412277,311.708923 168.483429,311.708923 159.880463,311.708923 
	C159.880463,319.555206 159.880463,327.099121 159.880463,334.622223 
	C152.953354,334.622223 146.709442,334.622223 140.391113,334.622223 
	C140.391113,318.879120 140.391113,303.483368 140.391113,288.046326 
	C199.643387,288.046326 258.523132,288.046326 318.029785,288.046326 
	C318.029785,312.531281 318.029785,336.583221 318.029785,360.602417 
	C342.036926,360.602417 365.412689,360.602417 388.759644,360.602417 
	C388.759644,287.261108 388.759644,214.351044 388.759644,141.387939 
	C364.686737,141.387939 340.985291,141.387939 317.450623,141.387939 
	C317.450623,165.838120 317.450623,189.867859 317.450623,213.996582 
	C273.530945,213.996582 229.970169,213.996582 185.440414,213.996582 
	C185.440414,189.590073 185.440414,165.568497 185.440414,141.342484 
	C161.103378,141.342484 137.738464,141.342484 114.443008,141.342484 
	C114.443008,174.631760 114.443008,207.543076 114.443008,240.677597 
	C123.109680,240.677597 131.331390,240.677597 140.197739,240.677597 
	C140.197739,216.236954 140.197739,192.115601 140.482285,167.750137 
	C140.666092,167.580032 140.836212,167.397186 141.921600,167.072220 
	C147.616196,167.111938 153.310776,167.151672 159.262802,167.476624 
	C159.440704,167.661423 159.629578,167.834213 159.958099,168.925171 
M83.916473,203.500000 
	C83.916473,243.536072 83.916473,283.572144 83.916473,323.690704 
	C92.711090,323.690704 100.773735,323.690704 108.966568,323.690704 
	C108.966568,275.039703 108.966568,226.732208 108.966568,178.306259 
	C100.492203,178.306259 92.436790,178.306259 83.916473,178.306259 
	C83.916473,186.591614 83.916473,194.545792 83.916473,203.500000 
M394.582489,193.502838 
	C394.582489,236.861511 394.582489,280.220184 394.582489,324.033173 
	C399.381927,324.033173 403.346558,324.033173 407.311188,324.033173 
	C411.414795,324.033173 415.518402,324.033173 419.712311,324.033173 
	C419.712311,275.039642 419.712311,226.716293 419.712311,178.305298 
	C411.279236,178.305298 403.213654,178.305298 394.582428,178.305298 
	C394.582428,183.259094 394.582428,187.881592 394.582489,193.502838 
M451.000000,252.500000 
	C451.000000,238.754303 451.000000,225.008621 451.000000,211.299072 
	C441.944458,211.299072 433.696136,211.299072 425.401611,211.299072 
	C425.401611,236.664307 425.401611,261.695190 425.401611,286.701050 
	C434.055328,286.701050 442.303650,286.701050 451.000000,286.701050 
	C451.000000,275.416504 451.000000,264.458252 451.000000,252.500000 
z"/>
<path fill="#8A2BE2" opacity="1.000000" stroke="none" 
	d="
M159.005371,167.191406 
	C153.310776,167.151672 147.616196,167.111938 141.222198,167.132111 
	C140.188232,167.367752 140.079880,167.635162 140.197739,167.994232 
	C140.197739,192.115601 140.197739,216.236954 140.197739,240.677597 
	C131.331390,240.677597 123.109680,240.677597 114.443008,240.677597 
	C114.443008,207.543076 114.443008,174.631760 114.443008,141.342484 
	C137.738464,141.342484 161.103378,141.342484 185.440414,141.342484 
	C185.440414,165.568497 185.440414,189.590073 185.440414,213.996582 
	C229.970169,213.996582 273.530945,213.996582 317.450623,213.996582 
	C317.450623,189.867859 317.450623,165.838120 317.450623,141.387939 
	C340.985291,141.387939 364.686737,141.387939 388.759644,141.387939 
	C388.759644,214.351044 388.759644,287.261108 388.759644,360.602417 
	C365.412689,360.602417 342.036926,360.602417 318.029785,360.602417 
	C318.029785,336.583221 318.029785,312.531281 318.029785,288.046326 
	C258.523132,288.046326 199.643387,288.046326 140.391113,288.046326 
	C140.391113,303.483368 140.391113,318.879120 140.391113,334.622223 
	C146.709442,334.622223 152.953354,334.622223 159.880463,334.622223 
	C159.880463,327.099121 159.880463,319.555206 159.880463,311.708923 
	C168.483429,311.708923 176.412277,311.708923 185.168182,311.708923 
	C185.168182,328.020294 185.168182,344.180115 185.168182,360.706360 
	C161.994812,360.706360 138.416336,360.706360 114.418098,360.706360 
	C114.418098,327.722809 114.418098,294.692871 114.418098,261.330353 
	C190.492142,261.330353 266.539856,261.330353 343.217865,261.330353 
	C343.217865,285.716675 343.217865,309.949799 343.217865,334.570648 
	C350.070007,334.570648 356.304230,334.570648 363.014282,334.570648 
	C363.014282,279.003815 363.014282,223.314621 363.014282,167.328735 
	C356.616791,167.328735 350.368286,167.328735 343.533783,167.328735 
	C343.533783,191.691605 343.533783,215.952774 343.533783,240.604279 
	C282.225891,240.604279 221.498322,240.604279 159.958099,240.604279 
	C159.958099,216.757111 159.958099,192.841141 159.894592,168.218811 
	C159.648331,167.167542 159.373108,167.060532 159.005371,167.191406 
z"/>
<path fill="#8A2BE2" opacity="1.000000" stroke="none" 
	d="
M83.916473,203.000000 
	C83.916473,194.545792 83.916473,186.591614 83.916473,178.306259 
	C92.436790,178.306259 100.492203,178.306259 108.966568,178.306259 
	C108.966568,226.732208 108.966568,275.039703 108.966568,323.690704 
	C100.773735,323.690704 92.711090,323.690704 83.916473,323.690704 
	C83.916473,283.572144 83.916473,243.536072 83.916473,203.000000 
z"/>
<path fill="#8A2BE2" opacity="1.000000" stroke="none" 
	d="
M394.582458,193.003479 
	C394.582428,187.881592 394.582428,183.259094 394.582428,178.305298 
	C403.213654,178.305298 411.279236,178.305298 419.712311,178.305298 
	C419.712311,226.716293 419.712311,275.039642 419.712311,324.033173 
	C415.518402,324.033173 411.414795,324.033173 407.311188,324.033173 
	C403.346558,324.033173 399.381927,324.033173 394.582489,324.033173 
	C394.582489,280.220184 394.582489,236.861511 394.582458,193.003479 
z"/>
<path fill="#8A2BE2" opacity="1.000000" stroke="none" 
	d="
M451.000000,253.000000 
	C451.000000,264.458252 451.000000,275.416504 451.000000,286.701050 
	C442.303650,286.701050 434.055328,286.701050 425.401611,286.701050 
	C425.401611,261.695190 425.401611,236.664307 425.401611,211.299072 
	C433.696136,211.299072 441.944458,211.299072 451.000000,211.299072 
	C451.000000,225.008621 451.000000,238.754303 451.000000,253.000000 
z"/>
<path fill="#8A2BE2" opacity="1.000000" stroke="none" 
	d="
M53.216354,285.991211 
	C53.180981,261.636261 53.145607,237.281326 53.308990,212.331635 
	C53.694077,211.555725 53.860764,211.358032 54.007816,211.143799 
	C62.108971,211.143799 70.210121,211.143799 78.654434,211.143799 
	C78.654434,236.358566 78.654434,261.330017 78.654434,286.989441 
	C70.726540,286.989441 62.826557,286.989441 54.346008,286.765869 
	C53.600536,286.340546 53.417507,286.156830 53.216354,285.991211 
z"/>
<path fill="#29243E" opacity="1.000000" stroke="none" 
	d="
M140.340012,167.872192 
	C140.079880,167.635162 140.188232,167.367752 140.757721,167.196808 
	C140.836212,167.397186 140.666092,167.580032 140.340012,167.872192 
z"/>
<path fill="#29243E" opacity="1.000000" stroke="none" 
	d="
M159.134094,167.334015 
	C159.373108,167.060532 159.648331,167.167542 159.830261,167.753723 
	C159.629578,167.834213 159.440704,167.661423 159.134094,167.334015 
z"/>
<path fill="#7D2ACB" opacity="1.000000" stroke="none" 
	d="
M53.767120,211.153290 
	C53.860764,211.358032 53.694077,211.555725 53.362053,211.865234 
	C53.084354,211.628845 53.187710,211.351898 53.767120,211.153290 
z"/>
<path fill="#7D2ACB" opacity="1.000000" stroke="none" 
	d="
M53.203854,286.232330 
	C53.417507,286.156830 53.600536,286.340546 53.881401,286.698730 
	C53.622944,286.951233 53.354275,286.823975 53.203854,286.232330 
z"/>
</svg>